<svg id="svg" version="1.1" xmlns="http://www.w3.org/2000/svg" xmlns:xlink="http://www.w3.org/1999/xlink" width="400" height="108.52713178294574" viewBox="0, 0, 400,108.52713178294574"><g id="svgg"><path id="path0" d="M358.217 6.138 C 353.355 7.863,346.293 14.475,335.417 27.489 C 333.858 29.353,332.080 31.467,331.464 32.186 C 330.849 32.905,330.212 33.701,330.049 33.955 C 329.781 34.374,326.930 38.031,326.136 38.975 C 325.172 40.121,322.925 43.292,322.045 44.750 C 321.491 45.667,320.661 47.036,320.201 47.793 C 316.919 53.189,317.861 55.827,324.083 58.668 C 325.603 59.362,337.529 65.319,337.749 65.493 C 337.841 65.567,339.942 66.659,342.417 67.920 C 347.912 70.720,352.759 73.276,354.036 74.047 C 355.859 75.147,355.801 75.145,357.236 74.176 C 357.931 73.707,358.499 73.232,358.499 73.120 C 358.498 73.008,356.979 72.133,355.124 71.176 C 351.847 69.486,345.958 66.323,343.250 64.800 C 342.517 64.387,340.754 63.449,339.333 62.714 C 332.641 59.255,327.411 56.157,326.024 54.831 C 324.798 53.659,325.159 53.002,329.098 49.237 C 330.722 47.686,333.310 45.177,334.850 43.661 L 337.650 40.905 337.553 39.410 C 337.344 36.191,338.867 34.673,342.605 34.371 L 344.097 34.250 349.158 29.083 C 356.514 21.573,357.598 20.867,358.587 22.946 C 358.905 23.615,359.748 29.403,360.270 34.500 C 360.424 36.012,360.569 37.273,360.590 37.301 C 360.671 37.406,365.264 38.659,365.583 38.663 C 365.767 38.666,367.039 39.005,368.412 39.417 C 369.784 39.829,370.965 40.167,371.037 40.167 C 371.306 40.167,371.075 31.787,370.660 26.500 C 370.250 21.278,369.843 18.502,368.751 13.502 C 367.390 7.265,363.232 4.358,358.217 6.138 M341.298 35.006 C 336.075 35.814,337.138 40.705,345.081 52.417 C 354.572 66.411,362.262 71.689,366.629 67.205 C 368.381 65.407,369.899 60.176,370.588 53.568 L 370.693 52.553 368.305 51.459 C 366.052 50.427,361.558 48.500,361.404 48.500 C 361.270 48.500,361.334 50.580,361.601 54.823 C 362.002 61.228,361.787 63.173,360.630 63.571 C 359.375 64.004,355.706 61.085,353.095 57.577 C 352.551 56.847,351.604 55.612,350.989 54.833 C 347.459 50.358,342.667 41.921,342.667 40.181 C 342.667 40.102,343.360 40.337,344.208 40.702 C 345.056 41.068,347.550 42.102,349.750 43.000 C 351.950 43.898,354.762 45.053,355.999 45.567 C 357.236 46.080,358.333 46.500,358.436 46.500 C 358.539 46.500,359.402 46.843,360.354 47.263 C 361.305 47.682,363.133 48.477,364.417 49.028 C 366.729 50.023,374.148 53.471,377.137 54.942 C 379.888 56.295,381.667 57.682,381.667 58.472 C 381.667 59.548,375.846 63.719,367.083 68.923 C 363.146 71.262,361.771 72.097,359.833 73.328 C 357.977 74.508,354.182 77.026,353.333 77.641 C 353.104 77.807,352.504 78.215,352.000 78.547 C 347.305 81.638,340.414 88.582,339.201 91.444 C 335.873 99.299,342.036 102.831,355.917 101.022 C 361.847 100.249,364.540 99.736,370.917 98.164 C 383.603 95.037,387.722 92.447,385.522 88.979 C 384.914 88.020,381.871 85.667,381.238 85.667 C 381.129 85.667,377.959 83.857,376.583 83.010 C 374.909 81.978,372.715 80.833,372.413 80.833 C 372.017 80.833,369.833 82.310,369.833 82.578 C 369.833 82.778,372.064 84.272,374.063 85.410 C 375.476 86.214,379.500 89.122,379.500 89.338 C 379.500 89.583,378.939 89.670,375.777 89.914 C 370.679 90.308,357.689 91.167,356.937 91.160 L 356.250 91.153 356.833 90.648 C 358.430 89.264,364.104 85.167,364.423 85.167 C 364.480 85.167,366.151 84.090,368.138 82.775 C 373.014 79.546,376.032 77.589,376.333 77.460 C 376.593 77.349,381.804 73.925,386.529 70.761 C 401.704 60.599,401.383 52.220,385.583 46.102 C 380.175 44.008,369.242 40.361,365.583 39.430 C 351.928 35.956,344.226 34.553,341.298 35.006 " stroke="none" fill="#e8ebfc" fill-rule="evenodd"></path><path id="path1" d="M17.854 58.205 C 17.777 58.413,17.357 59.558,16.919 60.750 C 15.756 63.921,13.585 69.641,11.669 74.583 C 10.068 78.713,8.810 82.067,8.045 84.250 C 7.852 84.800,6.934 87.200,6.004 89.583 C 5.075 91.967,3.829 95.192,3.235 96.750 C 2.642 98.308,2.084 99.756,1.995 99.966 C 1.906 100.177,1.833 100.420,1.833 100.508 C 1.833 100.603,3.092 100.667,4.966 100.667 L 8.099 100.667 9.487 96.875 C 10.250 94.790,11.334 91.827,11.896 90.291 L 12.917 87.499 20.903 87.541 L 28.889 87.583 29.048 88.083 C 29.136 88.358,29.789 90.233,30.501 92.250 C 31.212 94.267,31.871 96.179,31.965 96.500 C 32.059 96.821,32.416 97.890,32.758 98.875 L 33.379 100.667 36.541 100.667 C 39.484 100.667,39.695 100.647,39.589 100.375 C 39.527 100.215,39.375 99.696,39.251 99.222 C 39.037 98.404,38.855 97.881,37.699 94.750 C 37.428 94.017,36.640 91.879,35.948 90.000 C 35.256 88.121,33.964 84.633,33.078 82.250 C 32.191 79.867,31.371 77.579,31.254 77.167 C 31.138 76.754,30.740 75.592,30.370 74.583 C 29.369 71.857,26.456 63.983,25.252 60.750 L 24.196 57.917 21.095 57.871 C 18.004 57.826,17.994 57.827,17.854 58.205 M76.375 59.031 L 73.667 60.200 73.667 64.100 L 73.667 68.000 71.167 68.000 L 68.667 68.000 68.667 70.333 L 68.667 72.667 71.167 72.667 L 73.667 72.667 73.669 84.542 C 73.672 99.051,73.629 98.764,76.013 100.083 C 77.084 100.676,81.826 100.893,84.333 100.464 L 85.583 100.250 85.630 97.856 L 85.676 95.462 85.130 95.538 C 84.829 95.580,83.981 95.742,83.245 95.898 C 81.077 96.358,80.181 95.864,79.835 94.019 C 79.733 93.477,79.667 89.072,79.667 82.894 L 79.667 72.667 82.667 72.667 L 85.667 72.667 85.667 70.333 L 85.667 68.000 82.667 68.000 L 79.667 68.000 79.667 62.917 C 79.667 58.181,79.647 57.834,79.375 57.848 C 79.215 57.856,77.865 58.388,76.375 59.031 M138.833 60.583 L 138.833 63.333 150.750 63.333 L 162.667 63.333 158.862 68.375 C 156.768 71.148,154.212 74.504,153.182 75.833 C 152.151 77.162,150.886 78.813,150.372 79.500 C 148.065 82.583,145.523 85.909,144.067 87.750 C 143.196 88.850,142.214 90.162,141.883 90.667 C 141.552 91.171,140.731 92.268,140.058 93.105 L 138.833 94.627 138.833 97.647 L 138.833 100.667 154.583 100.667 L 170.333 100.667 170.333 97.917 L 170.333 95.167 158.075 95.167 L 145.817 95.167 147.419 93.042 C 148.301 91.873,149.953 89.679,151.091 88.167 C 152.229 86.654,153.930 84.395,154.872 83.147 C 155.813 81.899,157.160 80.099,157.865 79.147 C 158.570 78.195,160.185 76.060,161.455 74.402 C 162.724 72.744,164.023 71.010,164.340 70.550 C 164.657 70.089,166.023 68.268,167.375 66.504 L 169.833 63.295 169.833 60.564 L 169.833 57.833 154.333 57.833 L 138.833 57.833 138.833 60.583 M22.001 67.833 C 23.236 71.277,23.676 72.567,23.988 73.667 C 24.243 74.563,26.525 81.215,26.920 82.208 C 27.029 82.483,26.679 82.500,20.963 82.500 L 14.890 82.500 15.758 79.958 C 16.235 78.560,17.542 75.017,18.662 72.083 C 19.783 69.150,20.780 66.504,20.879 66.204 C 21.118 65.479,21.197 65.594,22.001 67.833 M51.750 66.674 C 45.132 67.232,41.084 70.837,41.090 76.167 C 41.095 80.799,43.704 83.521,49.405 84.842 C 56.319 86.443,57.882 86.939,59.560 88.064 C 61.862 89.607,62.409 91.938,60.950 93.980 C 58.308 97.674,49.289 97.281,46.626 93.356 L 46.358 92.961 44.721 93.221 C 43.820 93.365,42.530 93.555,41.854 93.645 C 40.222 93.862,40.161 93.949,40.846 95.080 C 42.487 97.787,44.893 99.435,48.667 100.437 C 50.411 100.900,57.260 100.845,59.083 100.354 C 68.336 97.860,70.760 87.833,63.195 83.339 C 61.267 82.193,59.441 81.585,54.357 80.396 C 48.307 78.980,46.656 77.802,46.877 75.054 C 47.299 69.802,57.670 69.569,60.034 74.759 C 60.272 75.280,60.033 75.336,62.920 74.085 C 65.807 72.833,65.707 72.951,64.909 71.749 C 62.838 68.629,57.288 66.108,53.417 66.529 C 53.325 66.539,52.575 66.604,51.750 66.674 M119.244 66.675 C 114.974 67.090,111.438 69.178,109.825 72.236 C 109.472 72.905,109.451 73.031,109.667 73.170 C 110.053 73.417,114.686 75.372,114.733 75.307 C 114.756 75.276,114.910 74.875,115.076 74.417 C 115.775 72.490,117.773 71.248,120.472 71.061 C 125.526 70.713,128.167 73.330,128.167 78.688 L 128.167 80.473 127.125 80.573 C 126.552 80.628,124.809 80.789,123.251 80.931 C 115.263 81.657,111.631 82.923,108.730 85.993 C 107.657 87.129,106.840 89.511,106.836 91.519 C 106.822 97.835,112.240 101.686,119.951 100.840 C 123.174 100.487,125.124 99.538,127.948 96.949 L 128.647 96.309 128.732 96.863 C 128.779 97.167,128.940 98.148,129.090 99.042 L 129.364 100.667 132.265 100.667 C 134.273 100.667,135.167 100.610,135.167 100.482 C 135.167 100.381,135.059 99.875,134.928 99.357 C 134.301 96.886,134.133 94.238,134.003 84.833 C 133.863 74.650,133.796 73.977,132.708 71.933 C 131.196 69.091,127.384 67.085,122.716 66.676 C 121.634 66.581,120.712 66.513,120.667 66.524 C 120.621 66.536,119.981 66.604,119.244 66.675 M307.078 66.675 C 303.147 67.057,299.883 68.804,298.157 71.448 C 297.202 72.911,297.177 73.039,297.792 73.331 C 298.370 73.606,302.377 75.333,302.437 75.333 C 302.461 75.333,302.679 74.893,302.921 74.354 C 304.120 71.682,307.523 70.401,311.152 71.257 C 314.476 72.040,315.989 74.415,315.997 78.862 L 316.000 80.473 314.958 80.573 C 314.385 80.628,312.642 80.789,311.085 80.931 C 299.740 81.962,295.043 84.867,294.709 91.057 C 294.173 100.987,307.511 104.697,315.664 96.886 C 316.292 96.284,316.462 96.376,316.488 97.333 C 316.494 97.563,316.620 98.406,316.767 99.208 L 317.035 100.667 320.017 100.667 C 321.720 100.667,323.000 100.601,323.000 100.513 C 323.000 100.429,322.890 99.923,322.756 99.388 C 322.253 97.388,322.017 93.495,321.920 85.583 C 321.754 72.108,321.194 70.418,316.121 68.088 C 314.197 67.205,309.561 66.253,308.500 66.524 C 308.454 66.536,307.814 66.604,307.078 66.675 M185.083 66.838 C 179.535 67.437,173.974 71.931,172.993 76.609 C 172.919 76.962,172.703 77.962,172.512 78.833 C 171.856 81.827,171.894 86.120,172.604 89.250 C 172.750 89.892,172.906 90.642,172.952 90.917 C 173.333 93.201,176.004 97.018,178.333 98.609 C 182.437 101.413,190.057 101.821,194.500 99.475 C 196.691 98.318,200.190 94.634,199.629 94.074 C 199.503 93.948,196.903 93.541,195.500 93.428 L 194.250 93.327 193.166 94.372 C 187.208 100.120,178.817 95.796,178.070 86.594 L 177.954 85.167 189.297 85.167 C 195.535 85.167,200.758 85.121,200.903 85.066 C 201.391 84.878,201.142 80.426,200.503 77.930 C 198.858 71.497,194.699 67.581,188.736 66.850 C 187.116 66.651,186.822 66.650,185.083 66.838 M246.734 66.837 C 243.639 67.163,239.516 69.189,237.664 71.292 C 231.452 78.350,232.671 93.632,239.833 98.497 C 245.179 102.128,254.210 101.801,258.567 97.819 C 259.936 96.569,261.560 94.337,261.295 94.072 C 261.170 93.948,258.552 93.551,257.000 93.422 L 255.750 93.317 254.649 94.391 C 248.553 100.335,239.500 95.115,239.500 85.655 L 239.500 85.167 250.958 85.164 C 257.379 85.163,262.520 85.096,262.651 85.013 C 263.142 84.702,262.665 79.554,261.916 77.083 C 260.111 71.129,256.081 67.546,250.403 66.850 C 248.785 66.651,248.500 66.650,246.734 66.837 M278.170 66.854 C 270.130 67.785,265.004 74.512,265.001 84.135 C 264.997 95.929,272.621 102.640,284.000 100.860 C 287.565 100.302,290.467 98.549,292.572 95.682 C 293.385 94.574,293.350 94.457,292.042 93.930 C 291.423 93.681,290.446 93.258,289.872 92.989 C 288.537 92.364,288.418 92.373,287.942 93.125 C 285.291 97.317,278.477 97.681,274.667 93.835 C 270.761 89.892,270.192 80.466,273.524 74.888 C 276.648 69.658,284.492 69.505,287.549 74.615 C 288.163 75.643,288.200 75.650,289.556 75.031 C 290.121 74.773,291.202 74.310,291.958 74.001 C 292.715 73.692,293.333 73.349,293.333 73.238 C 293.333 72.900,291.914 71.086,291.179 70.484 C 290.799 70.172,290.284 69.744,290.035 69.532 C 287.716 67.559,282.415 66.363,278.170 66.854 M216.927 67.431 C 214.222 68.036,211.413 69.853,210.122 71.833 C 209.864 72.230,209.850 72.150,209.842 70.125 L 209.833 68.000 207.000 68.000 L 204.167 68.000 204.167 84.333 L 204.167 100.667 206.992 100.667 L 209.818 100.667 209.872 89.875 C 209.934 77.669,209.875 78.245,211.289 76.112 C 215.075 70.400,224.341 71.691,225.167 78.046 C 225.253 78.708,225.325 84.031,225.328 89.875 L 225.333 100.500 228.176 100.500 L 231.018 100.500 230.960 88.292 C 230.894 74.622,230.935 75.094,229.618 72.585 C 227.549 68.643,221.853 66.330,216.927 67.431 M104.056 67.683 C 101.012 68.191,97.563 70.384,96.363 72.573 C 96.090 73.072,96.082 73.024,96.037 70.542 L 95.991 68.000 93.079 68.000 L 90.167 68.000 90.167 84.333 L 90.167 100.667 92.985 100.667 L 95.804 100.667 95.874 90.875 C 95.940 81.551,95.960 81.022,96.295 79.805 C 97.426 75.688,100.223 73.714,105.375 73.394 L 107.167 73.283 107.167 70.392 L 107.167 67.500 106.042 67.519 C 105.423 67.530,104.529 67.604,104.056 67.683 M188.185 71.170 C 192.023 71.898,195.000 75.933,195.000 80.407 C 195.000 80.639,194.094 80.667,186.581 80.667 L 178.163 80.667 178.271 79.958 C 179.224 73.717,183.170 70.219,188.185 71.170 M250.171 71.236 C 253.626 71.969,256.063 75.160,256.579 79.625 L 256.699 80.667 248.259 80.667 L 239.818 80.667 239.923 80.042 C 241.012 73.556,244.991 70.138,250.171 71.236 M128.004 89.720 C 127.244 93.264,124.365 95.646,120.265 96.124 C 116.134 96.604,113.164 94.734,113.168 91.656 C 113.173 88.870,115.206 87.124,119.753 85.999 C 121.752 85.505,122.520 85.366,126.083 84.854 L 128.083 84.567 128.130 86.741 C 128.156 87.936,128.099 89.277,128.004 89.720 M315.997 89.417 C 314.864 95.408,306.391 98.554,302.310 94.498 C 298.388 90.600,302.789 86.321,311.917 85.160 C 312.650 85.066,313.887 84.897,314.667 84.783 L 316.083 84.577 316.134 86.497 C 316.163 87.553,316.101 88.867,315.997 89.417 " stroke="none" fill="#e8ebfc" fill-rule="evenodd"></path></g></svg>