<svg id="svg" version="1.1" xmlns="http://www.w3.org/2000/svg" xmlns:xlink="http://www.w3.org/1999/xlink" width="400" height="101.35746606334841" viewBox="0, 0, 400,101.35746606334841"><g id="svgg"><path id="path0" d="M187.443 3.920 C 187.010 4.095,186.878 7.153,186.878 17.055 L 186.878 29.962 184.060 27.353 C 169.885 14.229,146.128 23.223,143.413 42.741 C 140.157 66.148,165.815 80.914,184.031 66.117 L 186.840 63.835 186.972 67.325 L 187.104 70.814 190.271 70.814 L 193.439 70.814 193.555 37.585 C 193.647 11.301,193.552 4.280,193.103 3.995 C 192.486 3.603,188.363 3.549,187.443 3.920 M18.653 22.138 C 15.379 23.345,13.677 24.464,11.059 27.135 L 8.824 29.415 8.597 25.907 L 8.371 22.398 5.204 22.398 L 2.036 22.398 2.036 46.606 L 2.036 70.814 5.204 70.814 L 8.371 70.814 8.640 57.240 C 8.985 39.800,9.567 36.829,13.487 32.481 C 18.938 26.436,29.238 26.598,32.452 32.779 C 33.929 35.619,34.079 37.285,34.344 53.846 L 34.615 70.814 37.545 70.952 C 41.737 71.148,41.547 71.829,41.608 56.411 C 41.666 41.930,42.057 38.624,44.134 35.081 C 49.591 25.768,63.337 25.620,66.270 34.842 C 66.468 35.464,66.757 43.812,66.912 53.394 L 67.195 70.814 70.588 70.814 L 73.982 70.814 74.101 55.504 C 74.235 38.311,73.838 34.085,71.671 29.661 C 66.609 19.323,52.097 18.192,43.427 27.460 C 41.941 29.049,40.724 30.546,40.724 30.786 C 40.724 31.901,39.484 31.045,38.947 29.558 C 36.640 23.180,26.193 19.360,18.653 22.138 M103.167 21.587 C 92.998 23.361,84.174 34.819,84.073 46.382 C 83.795 78.490,130.762 81.343,134.376 49.438 C 136.379 31.752,121.423 18.405,103.167 21.587 M224.208 21.474 C 223.959 21.549,222.839 21.877,221.719 22.204 C 207.111 26.469,200.024 45.416,207.823 59.361 C 217.233 76.188,242.053 76.563,251.745 60.024 C 253.299 57.373,253.204 57.093,250.246 55.569 C 247.508 54.158,247.092 54.232,245.961 56.331 C 237.784 71.515,214.318 67.062,212.000 49.887 L 211.680 47.511 233.003 47.511 C 257.539 47.511,255.200 48.076,254.332 42.365 C 252.909 32.994,246.790 25.619,237.703 22.321 C 235.063 21.362,226.395 20.819,224.208 21.474 M276.968 22.291 C 275.873 22.848,273.897 24.371,272.578 25.677 L 270.179 28.051 270.044 25.224 L 269.910 22.398 267.042 22.262 C 262.538 22.049,262.896 19.946,262.896 46.606 C 262.896 73.267,262.538 71.163,267.042 70.950 L 269.910 70.814 270.184 56.109 C 270.484 40.016,270.802 37.617,273.200 33.372 C 275.299 29.656,278.154 27.934,281.892 28.128 L 284.837 28.281 286.310 26.080 C 287.120 24.870,287.783 23.587,287.783 23.229 C 287.783 21.227,280.333 20.581,276.968 22.291 M312.657 21.895 C 308.994 23.300,306.200 25.041,303.869 27.373 L 301.394 29.848 301.263 26.123 L 301.131 22.398 298.264 22.262 C 293.759 22.049,294.118 19.946,294.118 46.606 C 294.118 73.267,293.759 71.163,298.264 70.950 L 301.131 70.814 301.422 56.335 C 301.582 48.371,301.914 41.104,302.160 40.187 C 305.755 26.770,323.138 22.935,328.441 34.389 L 329.593 36.878 329.842 53.846 L 330.090 70.814 333.258 70.814 L 336.425 70.814 336.425 53.167 L 336.425 35.520 335.123 32.192 C 331.808 23.719,320.917 18.727,312.657 21.895 M364.243 22.274 C 346.846 28.338,341.357 50.763,353.994 64.139 C 363.503 74.203,379.004 74.812,388.693 65.502 C 389.666 64.566,390.525 63.801,390.602 63.801 C 390.678 63.801,390.787 65.266,390.844 67.057 C 390.971 71.053,391.035 71.120,394.616 70.951 L 397.511 70.814 397.511 46.606 L 397.511 22.398 394.344 22.398 L 391.176 22.398 391.045 26.152 L 390.913 29.906 388.104 27.361 C 381.746 21.602,372.083 19.542,364.243 22.274 M114.467 28.771 C 127.582 32.666,131.899 50.615,122.029 60.209 C 113.160 68.829,98.256 66.302,92.994 55.285 C 85.902 40.437,99.055 24.194,114.467 28.771 M175.166 28.938 C 189.251 34.289,191.520 54.934,178.865 62.581 C 162.088 72.718,143.558 54.820,152.668 37.277 C 156.549 29.802,167.124 25.882,175.166 28.938 M237.796 29.731 C 241.314 31.540,243.830 34.008,245.374 37.163 C 247.513 41.536,248.922 41.176,229.638 41.176 C 217.968 41.176,212.670 41.026,212.670 40.696 C 212.670 38.442,216.640 32.863,219.784 30.700 C 224.382 27.536,232.662 27.091,237.796 29.731 M378.379 28.672 C 387.196 31.326,392.766 41.323,390.733 50.847 C 386.996 68.356,363.897 70.964,356.147 54.751 C 349.151 40.117,362.884 24.009,378.379 28.672 M215.254 90.479 C 202.983 90.747,203.188 90.696,203.174 93.497 C 203.162 95.938,203.396 95.982,216.974 96.071 C 230.804 96.163,230.769 96.170,230.769 93.196 C 230.769 90.328,229.818 90.161,215.254 90.479 M248.416 90.367 C 236.793 90.509,236.199 90.658,236.199 93.419 C 236.199 95.965,237.049 96.142,249.971 96.288 C 263.197 96.437,263.757 96.320,264.082 93.352 C 264.408 90.373,263.414 90.183,248.416 90.367 M282.137 90.486 L 270.383 90.724 269.968 91.905 C 268.560 95.913,269.992 96.382,283.627 96.373 C 297.120 96.365,298.096 96.054,297.099 92.081 C 296.893 91.261,294.181 89.603,293.937 90.147 C 293.912 90.203,288.602 90.355,282.137 90.486 M372.401 90.622 C 369.556 91.362,370.063 95.407,373.081 96.044 C 377.005 96.873,396.837 96.250,397.548 95.276 C 398.433 94.065,398.352 92.142,397.380 91.262 C 396.483 90.451,375.159 89.905,372.401 90.622 M12.478 90.837 C 2.359 90.978,1.810 91.102,1.810 93.236 C 1.810 95.873,2.081 95.928,15.121 95.928 C 28.197 95.928,28.507 95.862,28.507 93.090 C 28.507 91.370,26.967 90.476,24.221 90.601 C 22.969 90.658,17.685 90.764,12.478 90.837 M38.558 90.934 C 34.914 91.245,33.906 92.580,35.546 94.922 C 36.482 96.258,59.970 96.527,61.280 95.217 C 62.191 94.305,62.187 92.789,61.270 91.479 C 60.531 90.425,48.029 90.125,38.558 90.934 M69.044 91.202 C 68.184 92.061,68.106 94.097,68.891 95.170 C 69.405 95.872,70.602 95.932,81.883 95.822 L 94.310 95.701 95.006 94.457 C 95.632 93.337,95.632 93.088,95.006 91.968 L 94.310 90.724 82.036 90.604 C 71.323 90.499,69.671 90.575,69.044 91.202 M103.011 91.325 C 102.073 92.362,102.057 93.623,102.967 94.922 C 104.074 96.503,128.052 96.503,129.160 94.922 C 130.154 93.503,130.034 92.026,128.859 91.202 C 127.212 90.049,104.067 90.159,103.011 91.325 M136.495 91.325 C 135.623 92.290,135.505 94.600,136.290 95.385 C 137.064 96.159,161.579 96.159,162.353 95.385 C 163.255 94.482,163.032 91.507,162.021 90.966 C 160.284 90.036,137.370 90.359,136.495 91.325 M169.483 91.503 C 168.568 92.810,168.592 93.789,169.570 94.989 C 171.040 96.794,194.852 96.729,196.002 94.918 C 196.606 93.967,196.426 91.966,195.669 91.209 C 194.358 89.898,170.419 90.167,169.483 91.503 M304.551 91.145 C 303.607 92.282,304.146 95.149,305.430 95.818 C 307.479 96.887,330.207 96.405,331.032 95.276 C 331.869 94.130,331.846 92.755,330.970 91.503 C 330.072 90.221,305.594 89.889,304.551 91.145 M337.853 91.325 C 336.724 92.572,336.916 94.357,338.296 95.442 C 339.904 96.707,361.939 96.909,363.700 95.676 C 364.830 94.884,365.119 91.997,364.163 91.041 C 363.152 90.029,338.787 90.293,337.853 91.325 " stroke="none" fill="#e8ebfc" fill-rule="evenodd"></path></g></svg>