<svg id="svg" version="1.1" xmlns="http://www.w3.org/2000/svg" xmlns:xlink="http://www.w3.org/1999/xlink" width="400" height="225" viewBox="0, 0, 400,225"><g id="svgg"><path id="path0" d="M35.645 30.935 C 35.539 31.675,35.403 32.232,34.998 33.583 C 34.916 33.858,34.727 34.533,34.580 35.083 C 34.432 35.633,34.236 36.346,34.144 36.667 C 34.052 36.987,33.958 37.380,33.936 37.538 C 33.914 37.697,33.844 37.878,33.781 37.941 C 33.718 38.004,33.667 38.264,33.667 38.518 C 33.667 38.772,33.592 39.027,33.500 39.083 C 33.408 39.140,33.333 39.402,33.333 39.667 C 33.333 39.931,33.263 40.190,33.177 40.243 C 33.091 40.296,33.022 40.470,33.023 40.628 C 33.024 40.787,32.940 41.217,32.836 41.583 C 32.733 41.950,32.575 42.512,32.486 42.833 C 32.397 43.154,32.291 43.529,32.250 43.667 C 32.209 43.804,32.099 44.198,32.005 44.542 C 31.910 44.885,31.754 45.448,31.657 45.792 C 31.453 46.513,31.370 46.870,31.229 47.627 C 31.174 47.926,31.062 48.212,30.981 48.262 C 30.900 48.312,30.833 48.569,30.833 48.833 C 30.833 49.098,30.756 49.361,30.662 49.419 C 30.568 49.478,30.508 49.613,30.528 49.721 C 30.549 49.829,30.511 50.104,30.444 50.333 C 30.376 50.563,30.240 51.050,30.141 51.417 C 30.042 51.783,29.919 52.196,29.867 52.333 C 29.816 52.471,29.753 52.696,29.729 52.833 C 29.704 52.971,29.609 53.346,29.518 53.667 C 29.110 55.102,29.006 55.476,28.753 56.417 C 28.606 56.967,28.409 57.679,28.316 58.000 C 27.896 59.451,27.910 59.488,28.879 59.486 C 29.823 59.484,32.760 59.720,35.417 60.010 C 36.333 60.111,37.346 60.220,37.667 60.254 C 38.853 60.380,41.122 60.661,42.417 60.843 C 43.150 60.946,43.982 61.057,44.266 61.089 C 44.549 61.122,45.749 61.314,46.932 61.516 C 48.115 61.718,49.233 61.899,49.417 61.918 C 49.907 61.970,50.989 62.163,51.750 62.333 C 52.117 62.416,53.092 62.605,53.917 62.753 C 55.761 63.085,59.367 63.822,60.833 64.167 C 61.154 64.242,61.942 64.418,62.583 64.557 C 64.088 64.884,66.443 65.455,67.083 65.649 C 67.358 65.733,68.408 66.000,69.417 66.244 C 70.425 66.488,71.400 66.753,71.583 66.834 C 71.767 66.915,72.179 67.030,72.500 67.091 C 72.821 67.151,73.533 67.337,74.083 67.503 C 74.633 67.670,75.533 67.933,76.083 68.090 C 76.633 68.246,77.608 68.542,78.250 68.747 C 78.892 68.953,79.867 69.250,80.417 69.407 C 80.967 69.565,81.792 69.829,82.250 69.995 C 83.457 70.432,85.160 70.999,85.833 71.188 C 86.474 71.367,87.442 71.718,89.917 72.668 C 92.251 73.564,94.795 74.500,94.895 74.500 C 94.964 74.500,95.431 74.688,95.932 74.917 C 96.433 75.146,96.883 75.333,96.931 75.333 C 96.979 75.333,97.367 75.492,97.793 75.686 C 98.220 75.881,98.647 76.054,98.743 76.072 C 98.838 76.090,99.292 76.275,99.750 76.483 C 101.669 77.356,102.391 77.668,102.667 77.744 C 102.761 77.771,103.808 78.272,108.083 80.339 C 109.733 81.137,111.150 81.793,111.231 81.797 C 111.313 81.801,111.425 81.868,111.481 81.945 C 111.537 82.023,111.996 82.305,112.500 82.573 C 113.004 82.840,113.658 83.193,113.953 83.357 C 114.248 83.521,114.998 83.934,115.620 84.275 C 116.241 84.617,117.238 85.200,117.835 85.573 C 118.432 85.945,119.070 86.340,119.252 86.450 C 119.434 86.560,120.108 86.966,120.750 87.352 C 121.392 87.739,121.954 88.106,122.000 88.167 C 122.046 88.228,122.496 88.549,123.000 88.878 C 124.376 89.779,125.690 90.718,126.830 91.616 C 127.420 92.081,129.098 93.430,129.277 93.583 C 131.003 95.062,131.603 95.611,132.664 96.679 C 134.092 98.117,136.129 100.370,136.500 100.922 C 137.704 102.712,138.120 103.397,138.670 104.490 C 139.773 106.682,140.495 109.297,140.505 111.136 C 140.509 111.885,140.547 112.020,140.687 111.779 C 140.784 111.612,140.823 111.434,140.772 111.383 C 140.721 111.332,140.790 111.078,140.925 110.817 C 141.060 110.557,141.154 110.285,141.135 110.213 C 141.116 110.142,141.156 109.896,141.223 109.667 C 141.290 109.438,141.426 108.950,141.525 108.583 C 141.624 108.217,141.761 107.767,141.830 107.583 C 141.899 107.400,142.040 106.912,142.144 106.500 C 142.307 105.854,142.575 104.862,143.360 102.000 C 143.448 101.679,143.551 101.267,143.588 101.083 C 143.675 100.653,144.249 98.659,144.379 98.333 C 144.433 98.196,144.553 97.746,144.645 97.333 C 144.737 96.921,144.885 96.321,144.973 96.000 C 145.200 95.176,145.938 92.519,146.431 90.750 C 146.662 89.925,146.881 89.100,146.919 88.917 C 147.002 88.520,147.260 87.574,147.523 86.708 C 147.995 85.152,147.806 81.744,147.153 80.056 C 147.053 79.796,146.944 79.455,146.913 79.298 C 146.713 78.313,144.565 74.208,143.903 73.545 C 143.773 73.416,143.667 73.259,143.666 73.196 C 143.666 73.134,143.498 72.883,143.291 72.638 C 143.085 72.392,142.729 71.956,142.500 71.669 C 141.117 69.931,138.987 67.719,137.283 66.250 C 136.752 65.792,136.104 65.229,135.844 65.000 C 134.988 64.247,134.500 63.857,134.500 63.929 C 134.500 63.968,134.365 63.869,134.200 63.708 C 134.035 63.548,133.650 63.229,133.344 63.000 C 133.039 62.771,132.593 62.414,132.353 62.207 C 132.113 62.001,131.785 61.789,131.625 61.738 C 131.465 61.686,131.333 61.579,131.333 61.500 C 131.333 61.421,131.197 61.312,131.029 61.259 C 130.862 61.206,130.581 61.030,130.404 60.868 C 130.228 60.706,129.596 60.261,129.000 59.879 C 128.404 59.497,127.842 59.121,127.750 59.044 C 127.314 58.677,123.702 56.500,123.530 56.500 C 123.422 56.500,123.333 56.425,123.333 56.333 C 123.333 56.242,123.251 56.167,123.151 56.167 C 123.050 56.167,122.750 56.012,122.484 55.822 C 122.218 55.632,121.999 55.539,121.997 55.614 C 121.996 55.689,121.940 55.675,121.872 55.583 C 121.749 55.416,121.585 55.315,120.180 54.542 C 119.760 54.311,119.323 54.048,119.208 53.957 C 119.094 53.867,119.000 53.844,119.000 53.908 C 119.000 53.971,118.794 53.880,118.542 53.705 C 118.126 53.416,112.433 50.528,112.245 50.510 C 112.201 50.506,111.659 50.265,111.041 49.974 C 109.957 49.464,108.442 48.782,107.750 48.492 C 107.567 48.415,106.825 48.086,106.102 47.760 C 105.378 47.434,104.727 47.167,104.655 47.167 C 104.582 47.167,104.049 46.953,103.470 46.692 C 102.891 46.431,102.192 46.138,101.917 46.041 C 101.642 45.944,101.267 45.809,101.083 45.740 C 100.900 45.672,100.675 45.597,100.583 45.574 C 100.492 45.551,99.704 45.254,98.833 44.915 C 95.551 43.637,94.432 43.229,93.833 43.091 C 93.588 43.034,92.404 42.602,91.750 42.331 C 91.567 42.254,90.967 42.062,90.417 41.902 C 89.867 41.743,89.342 41.559,89.250 41.494 C 89.158 41.430,88.783 41.323,88.417 41.257 C 88.050 41.191,87.675 41.082,87.583 41.014 C 87.492 40.947,86.929 40.755,86.333 40.588 C 85.737 40.421,84.705 40.108,84.038 39.892 C 83.372 39.676,82.682 39.500,82.506 39.500 C 82.330 39.500,82.145 39.434,82.095 39.353 C 82.045 39.271,81.797 39.168,81.544 39.123 C 81.291 39.078,80.333 38.838,79.417 38.590 C 78.500 38.341,77.578 38.105,77.367 38.064 C 77.156 38.024,76.669 37.887,76.284 37.761 C 75.898 37.635,75.058 37.411,74.417 37.263 C 73.775 37.115,72.987 36.925,72.667 36.841 C 72.346 36.757,71.746 36.609,71.333 36.513 C 68.993 35.968,67.703 35.674,67.333 35.602 C 66.912 35.520,66.170 35.363,64.500 35.001 C 63.996 34.891,63.433 34.775,63.250 34.743 C 62.523 34.614,61.040 34.326,60.250 34.160 C 59.792 34.063,59.229 33.956,59.000 33.923 C 58.771 33.889,58.096 33.772,57.500 33.664 C 55.177 33.242,55.314 33.264,50.250 32.487 C 49.608 32.389,48.821 32.277,48.500 32.239 C 48.179 32.202,47.317 32.092,46.583 31.996 C 43.171 31.550,42.443 31.469,39.250 31.176 C 38.242 31.083,37.023 30.958,36.542 30.897 C 36.060 30.836,35.657 30.854,35.645 30.935 M47.667 74.516 C 43.679 74.722,42.731 74.812,39.000 75.343 C 38.313 75.440,37.563 75.546,37.333 75.577 C 36.952 75.628,36.245 75.764,34.167 76.182 C 33.754 76.265,33.267 76.359,33.083 76.390 C 32.900 76.422,32.563 76.500,32.333 76.563 C 32.104 76.626,31.617 76.760,31.250 76.859 C 30.883 76.958,30.471 77.078,30.333 77.126 C 30.196 77.174,29.971 77.230,29.833 77.251 C 29.599 77.287,28.220 77.733,27.667 77.951 C 27.529 78.006,27.342 78.069,27.250 78.091 C 27.087 78.130,25.583 78.704,24.917 78.981 C 22.925 79.808,19.160 81.863,19.027 82.196 C 18.997 82.272,18.903 82.293,18.819 82.241 C 18.735 82.189,18.667 82.210,18.667 82.288 C 18.667 82.365,18.428 82.569,18.137 82.741 C 17.231 83.276,14.077 86.257,12.876 87.713 C 11.512 89.367,9.345 93.686,8.842 95.752 C 8.119 98.723,10.079 104.442,13.140 108.285 L 13.831 109.154 14.957 108.596 C 17.917 107.129,21.775 105.721,24.167 105.234 C 24.304 105.206,24.754 105.101,25.167 105.000 C 25.579 104.899,26.329 104.743,26.833 104.653 C 27.337 104.563,28.313 104.373,29.000 104.232 C 35.825 102.825,49.520 102.455,62.000 103.340 C 63.421 103.441,65.071 103.553,65.667 103.590 C 66.698 103.653,68.788 103.837,72.083 104.155 C 72.908 104.234,73.783 104.351,74.028 104.414 C 74.611 104.565,74.631 104.522,75.567 101.083 C 76.335 98.265,76.581 97.372,76.855 96.417 C 76.934 96.142,77.413 94.379,77.921 92.500 C 78.428 90.621,78.987 88.596,79.164 88.000 C 79.340 87.404,79.532 86.692,79.589 86.417 C 79.647 86.142,79.754 85.729,79.828 85.500 C 79.901 85.271,80.043 84.783,80.144 84.417 C 80.661 82.530,82.143 77.040,82.214 76.750 C 82.259 76.567,82.345 76.297,82.406 76.150 C 82.517 75.883,81.657 75.715,79.417 75.569 C 79.050 75.545,77.813 75.442,76.667 75.341 C 70.981 74.838,69.511 74.743,64.000 74.520 C 59.763 74.348,50.944 74.346,47.667 74.516 " stroke="none" fill="#e8ebfc" fill-rule="evenodd"></path><path id="path1" d="M254.167 66.103 C 249.467 66.653,242.601 69.231,241.167 70.983 C 241.121 71.039,240.783 71.306,240.417 71.576 C 238.250 73.171,236.332 75.263,233.534 79.083 C 232.692 80.232,230.826 83.684,229.750 86.083 C 228.859 88.069,228.667 88.528,228.667 88.673 C 228.667 88.764,228.596 88.968,228.510 89.127 C 228.122 89.847,226.397 95.028,225.668 97.667 C 225.579 97.987,225.091 99.787,224.583 101.667 C 224.075 103.546,223.576 105.383,223.474 105.750 C 223.372 106.117,223.227 106.642,223.152 106.917 C 223.076 107.192,222.898 107.829,222.755 108.333 C 222.372 109.688,222.260 110.096,221.250 113.833 C 220.340 117.200,220.094 118.098,219.812 119.083 C 219.733 119.358,219.254 121.121,218.747 123.000 C 217.838 126.374,217.592 127.272,217.311 128.250 C 217.232 128.525,216.566 130.962,215.831 133.667 C 214.524 138.472,214.270 139.397,213.978 140.417 C 213.900 140.692,213.422 142.454,212.917 144.333 C 212.412 146.212,211.934 147.975,211.855 148.250 C 211.569 149.250,211.316 150.170,210.000 155.000 C 208.684 159.830,208.431 160.750,208.145 161.750 C 208.066 162.025,207.587 163.787,207.081 165.667 C 206.198 168.942,205.959 169.815,205.646 170.917 C 205.438 171.650,204.864 173.740,204.492 175.125 C 204.114 176.528,203.683 178.108,203.070 180.333 C 202.830 181.204,202.573 182.142,202.499 182.417 C 201.766 185.138,201.301 186.848,200.570 189.500 C 199.874 192.025,199.823 192.214,199.651 192.917 C 199.561 193.283,199.448 193.715,199.399 193.875 C 199.316 194.150,199.746 194.167,206.819 194.167 L 214.327 194.167 214.425 193.708 C 214.479 193.456,214.632 192.875,214.764 192.417 C 215.085 191.304,215.233 190.760,215.833 188.500 C 216.113 187.446,216.425 186.283,216.527 185.917 C 216.629 185.550,216.773 185.025,216.848 184.750 C 216.924 184.475,217.102 183.838,217.245 183.333 C 217.615 182.025,217.761 181.490,218.333 179.333 C 218.926 177.102,219.069 176.576,219.425 175.333 C 219.569 174.829,219.767 174.117,219.866 173.750 C 219.964 173.383,220.110 172.858,220.188 172.583 C 220.267 172.308,220.746 170.546,221.253 168.667 C 222.435 164.280,222.512 163.999,222.672 163.500 C 222.746 163.271,222.853 162.858,222.911 162.583 C 222.968 162.308,223.159 161.596,223.335 161.000 C 223.511 160.404,223.885 159.054,224.165 158.000 C 224.745 155.822,224.891 155.288,225.255 154.000 C 225.398 153.496,225.576 152.858,225.652 152.583 C 225.727 152.308,225.872 151.783,225.974 151.417 C 226.076 151.050,226.575 149.212,227.083 147.333 C 227.993 143.966,228.239 143.069,228.522 142.083 C 228.600 141.808,229.079 140.046,229.586 138.167 C 230.615 134.351,230.719 133.970,231.091 132.667 C 231.235 132.162,231.434 131.450,231.532 131.083 C 231.631 130.717,231.776 130.192,231.855 129.917 C 231.934 129.642,232.413 127.879,232.919 126.000 C 233.821 122.655,234.066 121.759,234.355 120.750 C 234.434 120.475,234.914 118.712,235.422 116.833 C 235.931 114.954,236.435 113.098,236.543 112.708 L 236.739 112.000 244.298 112.000 C 251.420 112.000,251.851 112.017,251.764 112.292 C 251.714 112.452,251.514 113.183,251.321 113.917 C 251.127 114.650,250.904 115.475,250.825 115.750 C 250.746 116.025,250.561 116.700,250.413 117.250 C 250.266 117.800,250.070 118.513,249.979 118.833 C 249.887 119.154,249.708 119.829,249.582 120.333 C 249.384 121.123,248.803 123.237,248.324 124.917 C 248.246 125.192,248.061 125.867,247.913 126.417 C 247.766 126.967,247.570 127.679,247.479 128.000 C 247.387 128.321,247.208 128.996,247.082 129.500 C 246.884 130.290,246.303 132.404,245.824 134.083 C 245.746 134.358,245.561 135.033,245.413 135.583 C 245.266 136.133,245.070 136.846,244.979 137.167 C 244.887 137.487,244.708 138.162,244.582 138.667 C 244.384 139.456,243.803 141.571,243.324 143.250 C 243.246 143.525,243.061 144.200,242.913 144.750 C 242.766 145.300,242.570 146.012,242.479 146.333 C 242.387 146.654,242.210 147.329,242.085 147.833 C 241.960 148.337,241.806 148.919,241.743 149.125 L 241.628 149.500 249.110 149.500 L 256.593 149.500 256.885 148.458 C 257.045 147.885,257.258 147.117,257.358 146.750 C 257.457 146.383,257.602 145.896,257.679 145.667 C 257.757 145.438,257.870 144.950,257.932 144.583 C 257.993 144.217,258.099 143.842,258.166 143.750 C 258.233 143.658,258.332 143.396,258.385 143.167 C 258.582 142.309,258.984 140.730,259.149 140.167 C 259.242 139.846,259.439 139.133,259.587 138.583 C 259.734 138.033,259.930 137.321,260.021 137.000 C 260.113 136.679,260.262 136.079,260.354 135.667 C 260.445 135.254,260.582 134.767,260.657 134.583 C 260.818 134.196,261.102 133.203,261.325 132.250 C 261.411 131.883,261.557 131.321,261.650 131.000 C 261.743 130.679,261.939 129.967,262.087 129.417 C 262.234 128.867,262.420 128.192,262.500 127.917 C 262.580 127.642,262.766 126.967,262.913 126.417 C 263.061 125.867,263.258 125.154,263.351 124.833 C 263.445 124.513,263.624 123.837,263.750 123.333 C 263.876 122.829,264.055 122.154,264.149 121.833 C 264.242 121.513,264.439 120.800,264.587 120.250 C 264.734 119.700,264.920 119.025,265.000 118.750 C 265.080 118.475,265.266 117.800,265.413 117.250 C 265.561 116.700,265.758 115.987,265.851 115.667 C 265.945 115.346,266.124 114.671,266.250 114.167 C 266.376 113.662,266.555 112.987,266.649 112.667 C 266.742 112.346,266.939 111.633,267.087 111.083 C 267.234 110.533,267.420 109.858,267.500 109.583 C 267.580 109.308,267.766 108.633,267.913 108.083 C 268.061 107.533,268.257 106.821,268.350 106.500 C 268.659 105.431,268.825 104.752,268.829 104.542 C 268.833 104.377,265.720 104.333,253.814 104.333 L 238.794 104.333 238.911 103.958 C 239.028 103.586,239.743 101.040,240.001 100.083 C 240.734 97.362,241.199 95.652,241.930 93.000 C 242.632 90.452,242.678 90.283,242.847 89.583 C 242.935 89.217,243.072 88.729,243.151 88.500 C 243.230 88.271,243.388 87.746,243.501 87.333 C 243.900 85.885,244.192 84.914,244.328 84.583 C 244.403 84.400,244.596 83.875,244.756 83.417 C 247.651 75.145,253.581 70.660,258.382 73.112 C 259.511 73.688,259.854 75.900,258.972 76.908 C 258.896 76.995,258.833 77.172,258.833 77.300 C 258.833 77.428,258.729 77.769,258.602 78.058 C 257.298 81.011,257.258 83.313,258.471 85.500 C 258.869 86.219,260.395 87.833,260.675 87.833 C 260.749 87.833,260.909 87.927,261.030 88.042 C 262.216 89.164,266.669 89.684,268.743 88.943 C 273.513 87.238,276.188 82.643,275.530 77.287 C 275.333 75.687,274.525 73.338,273.996 72.833 C 273.948 72.787,273.767 72.525,273.593 72.250 C 272.793 70.986,269.267 68.000,268.574 68.000 C 268.522 68.000,268.068 67.812,267.567 67.583 C 267.065 67.353,266.376 67.097,266.036 67.014 C 265.695 66.931,264.983 66.744,264.452 66.598 C 261.946 65.912,257.591 65.703,254.167 66.103 M54.542 74.288 C 54.885 74.324,55.448 74.324,55.792 74.288 C 56.135 74.252,55.854 74.223,55.167 74.223 C 54.479 74.223,54.198 74.252,54.542 74.288 M173.837 82.875 C 173.671 83.544,173.473 84.271,173.145 85.417 C 173.066 85.692,172.587 87.454,172.079 89.333 C 171.572 91.212,171.013 93.237,170.836 93.833 C 170.660 94.429,170.468 95.142,170.411 95.417 C 170.353 95.692,170.246 96.104,170.172 96.333 C 170.015 96.823,169.959 97.029,168.750 101.500 C 167.840 104.867,167.594 105.764,167.312 106.750 C 167.199 107.144,165.841 112.152,165.256 114.333 C 165.194 114.563,165.080 114.975,165.001 115.250 C 164.862 115.732,164.426 117.321,163.685 120.042 C 163.111 122.150,162.699 123.655,162.236 125.333 C 161.997 126.204,161.740 127.142,161.666 127.417 C 160.933 130.138,160.467 131.848,159.736 134.500 C 159.497 135.371,159.240 136.308,159.166 136.583 C 158.236 140.038,157.024 144.467,156.657 145.750 C 156.159 147.497,155.953 148.325,155.881 148.875 L 155.798 149.500 163.526 149.500 L 171.254 149.500 172.146 146.208 C 172.636 144.398,173.095 142.729,173.166 142.500 C 173.322 141.996,173.410 141.673,174.583 137.333 C 175.760 132.979,175.845 132.669,176.001 132.167 C 176.072 131.938,176.570 130.123,177.107 128.134 L 178.083 124.518 186.917 124.445 C 191.775 124.405,196.162 124.297,196.667 124.206 C 199.580 123.678,200.661 123.430,201.172 123.172 C 201.313 123.101,201.678 122.987,201.983 122.920 C 206.047 122.028,211.199 118.342,214.808 113.746 C 215.006 113.494,216.556 110.817,216.785 110.333 C 217.376 109.078,217.815 107.973,218.075 107.083 C 218.236 106.533,218.433 105.896,218.513 105.667 C 219.124 103.920,219.285 98.781,218.800 96.500 C 217.481 90.290,213.252 85.613,207.000 83.447 C 203.391 82.197,203.028 82.173,187.715 82.170 L 174.013 82.167 173.837 82.875 M147.910 84.625 C 147.707 85.589,147.702 85.665,147.849 85.574 C 147.932 85.522,148.000 85.330,148.000 85.146 C 148.000 84.962,148.078 84.666,148.173 84.489 C 148.288 84.273,148.289 84.167,148.176 84.167 C 148.083 84.167,147.963 84.373,147.910 84.625 M194.797 90.339 C 200.718 91.081,204.301 96.908,203.081 103.809 C 202.153 109.057,198.994 112.531,192.750 115.167 C 192.567 115.245,191.967 115.434,191.417 115.588 C 190.867 115.742,190.192 115.947,189.917 116.043 C 188.896 116.401,180.286 116.416,180.391 116.059 C 180.442 115.889,180.676 115.037,180.911 114.167 C 181.147 113.296,181.403 112.358,181.481 112.083 C 181.825 110.860,182.049 110.044,182.918 106.833 C 183.427 104.954,183.988 102.929,184.166 102.333 C 184.343 101.737,184.562 100.950,184.651 100.583 C 184.741 100.217,184.887 99.654,184.975 99.333 C 185.063 99.013,185.293 98.169,185.485 97.458 C 185.676 96.748,185.982 95.623,186.164 94.958 C 186.345 94.294,186.677 93.075,186.900 92.250 C 187.124 91.425,187.358 90.619,187.421 90.458 C 187.558 90.110,192.356 90.033,194.797 90.339 M8.091 98.375 C 7.827 99.315,7.427 100.758,7.203 101.583 C 6.978 102.408,6.608 103.758,6.381 104.583 C 6.153 105.408,5.906 106.308,5.832 106.583 C 5.463 107.956,4.966 109.791,4.671 110.875 C 4.490 111.540,4.180 112.721,3.981 113.500 C 3.783 114.279,3.556 115.047,3.477 115.206 C 3.398 115.365,3.333 115.680,3.333 115.905 C 3.333 116.130,3.258 116.360,3.167 116.417 C 3.075 116.473,3.000 116.673,3.000 116.860 C 3.000 117.181,2.410 119.374,1.652 121.873 C 1.465 122.491,1.353 123.064,1.405 123.147 C 1.456 123.231,1.387 123.513,1.250 123.774 C 0.980 124.292,0.891 124.930,1.144 124.530 C 1.230 124.395,1.322 124.781,1.382 125.530 C 1.494 126.913,2.023 129.073,2.508 130.123 C 2.687 130.512,2.833 130.887,2.834 130.957 C 2.838 132.576,8.440 139.566,12.490 143.005 C 13.080 143.507,13.687 144.029,13.840 144.167 C 14.206 144.498,14.610 144.818,15.417 145.419 C 15.783 145.691,16.121 145.953,16.167 145.999 C 16.349 146.185,18.114 147.475,18.583 147.766 C 18.858 147.936,19.121 148.122,19.167 148.180 C 19.212 148.237,19.586 148.494,19.996 148.751 C 20.407 149.008,20.843 149.320,20.967 149.443 C 21.090 149.566,21.291 149.667,21.415 149.667 C 21.538 149.667,21.664 149.734,21.694 149.816 C 21.761 149.995,26.073 152.610,27.833 153.539 C 28.521 153.902,29.158 154.260,29.250 154.334 C 29.519 154.551,35.775 157.700,37.500 158.485 C 39.126 159.226,40.661 159.916,41.250 160.171 C 41.433 160.250,41.921 160.462,42.333 160.642 C 42.746 160.822,43.758 161.243,44.583 161.579 C 45.408 161.914,46.308 162.290,46.583 162.413 C 47.911 163.009,53.378 165.039,54.500 165.353 C 54.821 165.442,55.233 165.585,55.417 165.670 C 55.830 165.861,61.134 167.605,63.500 168.328 C 64.462 168.622,65.438 168.922,65.667 168.995 C 65.896 169.068,66.383 169.207,66.750 169.304 C 67.117 169.401,67.829 169.598,68.333 169.742 C 68.837 169.886,69.512 170.076,69.833 170.163 C 72.755 170.959,73.698 171.205,75.583 171.662 C 76.775 171.951,78.350 172.334,79.083 172.512 C 79.817 172.691,80.792 172.915,81.250 173.011 C 81.708 173.107,82.383 173.254,82.750 173.338 C 83.117 173.421,84.017 173.604,84.750 173.744 C 85.483 173.884,86.421 174.075,86.833 174.168 C 87.246 174.262,88.221 174.453,89.000 174.593 C 89.779 174.734,90.792 174.920,91.250 175.008 C 91.708 175.095,92.833 175.287,93.750 175.435 C 94.667 175.583,95.792 175.768,96.250 175.846 C 97.051 175.983,99.632 176.352,102.083 176.681 C 103.331 176.848,106.433 177.210,109.417 177.536 C 110.425 177.646,111.773 177.739,112.412 177.743 L 113.574 177.750 113.778 176.917 C 113.889 176.458,114.065 175.783,114.168 175.417 C 114.270 175.050,114.429 174.412,114.520 174.000 C 114.611 173.588,114.748 173.100,114.824 172.917 C 114.984 172.530,115.268 171.537,115.492 170.583 C 115.577 170.217,115.724 169.654,115.816 169.333 C 115.909 169.012,116.106 168.300,116.253 167.750 C 116.401 167.200,116.587 166.525,116.667 166.250 C 116.746 165.975,116.932 165.300,117.080 164.750 C 117.227 164.200,117.425 163.487,117.518 163.167 C 117.612 162.846,117.791 162.171,117.917 161.667 C 118.042 161.162,118.222 160.487,118.315 160.167 C 118.409 159.846,118.606 159.133,118.753 158.583 C 118.901 158.033,119.087 157.358,119.167 157.083 C 119.246 156.808,119.432 156.133,119.580 155.583 C 119.727 155.033,119.925 154.321,120.018 154.000 C 120.112 153.679,120.291 153.004,120.417 152.500 C 120.542 151.996,120.731 151.283,120.836 150.917 C 121.344 149.146,121.449 149.246,118.917 149.098 C 117.148 148.994,112.610 148.574,110.833 148.348 C 106.658 147.818,105.158 147.621,104.417 147.505 C 103.958 147.434,102.983 147.289,102.250 147.183 C 101.517 147.078,100.579 146.923,100.167 146.839 C 99.754 146.755,98.742 146.568,97.917 146.424 C 97.092 146.280,96.042 146.087,95.583 145.996 C 92.052 145.293,91.179 145.116,90.667 145.000 C 90.346 144.928,89.483 144.741,88.750 144.586 C 88.017 144.431,87.154 144.243,86.833 144.170 C 86.513 144.097,85.725 143.917,85.083 143.770 C 84.442 143.623,83.617 143.422,83.250 143.324 C 82.883 143.226,82.171 143.043,81.667 142.919 C 80.736 142.689,77.829 141.922,76.917 141.666 C 76.642 141.589,76.117 141.443,75.750 141.343 C 72.907 140.566,64.013 137.794,62.917 137.343 C 62.733 137.268,62.058 137.020,61.417 136.792 C 60.775 136.564,59.723 136.180,59.079 135.939 C 58.435 135.697,57.847 135.500,57.771 135.500 C 57.696 135.500,57.360 135.379,57.025 135.230 C 55.544 134.573,55.353 134.500,55.133 134.500 C 55.005 134.500,54.829 134.434,54.742 134.354 C 54.655 134.274,54.164 134.054,53.653 133.867 C 52.581 133.474,49.016 131.996,47.667 131.386 C 47.163 131.158,46.487 130.854,46.167 130.710 C 40.704 128.265,35.243 125.434,30.667 122.673 C 30.529 122.590,29.834 122.173,29.121 121.745 C 28.408 121.318,27.733 120.880,27.621 120.772 C 27.509 120.664,27.004 120.317,26.500 119.999 C 25.728 119.513,25.156 119.117,23.916 118.206 C 23.155 117.647,21.734 116.567,21.667 116.496 C 21.621 116.448,21.246 116.149,20.833 115.831 C 20.421 115.514,20.001 115.179,19.901 115.086 C 19.800 114.993,19.211 114.471,18.591 113.926 C 17.492 112.959,15.730 111.180,14.043 109.333 C 11.078 106.089,9.068 101.823,8.879 98.375 C 8.828 97.435,8.737 96.667,8.678 96.667 C 8.619 96.667,8.355 97.435,8.091 98.375 M133.917 100.237 C 133.367 100.532,132.542 100.913,132.083 101.083 C 131.625 101.252,131.175 101.444,131.083 101.509 C 130.870 101.660,127.628 102.761,126.750 102.981 C 126.383 103.073,125.783 103.231,125.417 103.334 C 124.003 103.728,121.492 104.245,119.333 104.586 C 115.770 105.150,115.653 105.162,109.083 105.668 C 106.293 105.882,96.537 105.882,93.087 105.667 C 91.618 105.576,89.029 105.422,87.333 105.325 C 81.577 104.997,74.966 104.382,74.831 104.162 C 74.678 103.916,74.384 104.642,73.891 106.479 C 73.654 107.362,73.275 108.758,73.047 109.583 C 72.820 110.408,72.573 111.308,72.499 111.583 C 71.766 114.304,71.301 116.014,70.570 118.667 C 70.330 119.537,70.073 120.475,69.999 120.750 C 69.069 124.204,67.857 128.634,67.491 129.917 C 67.412 130.192,67.240 130.829,67.109 131.333 C 66.977 131.837,66.818 132.375,66.755 132.528 C 66.659 132.763,66.791 132.822,67.612 132.906 C 68.146 132.961,69.221 133.077,70.000 133.163 C 77.055 133.943,85.759 134.398,93.667 134.402 C 104.870 134.407,112.722 133.477,120.083 131.274 C 121.210 130.937,123.250 130.218,123.893 129.933 C 124.181 129.805,124.979 129.452,125.667 129.149 C 126.354 128.845,127.196 128.425,127.538 128.215 C 127.880 128.005,128.204 127.833,128.259 127.833 C 128.825 127.833,133.438 124.295,134.772 122.836 C 136.926 120.482,139.667 116.089,139.667 114.992 C 139.667 114.850,139.730 114.662,139.807 114.575 C 141.429 112.747,140.226 106.532,137.435 102.323 C 135.462 99.347,135.514 99.378,133.917 100.237 M52.375 102.948 C 52.535 102.990,52.798 102.990,52.958 102.948 C 53.119 102.906,52.987 102.872,52.667 102.872 C 52.346 102.872,52.215 102.906,52.375 102.948 M330.333 103.185 C 327.430 103.763,326.035 104.180,324.197 105.019 C 323.617 105.284,323.074 105.500,322.988 105.500 C 322.903 105.500,322.833 105.575,322.833 105.667 C 322.833 105.758,322.755 105.833,322.659 105.833 C 322.112 105.833,319.179 107.997,317.355 109.746 C 315.247 111.767,312.000 116.042,312.000 116.796 C 312.000 116.893,311.938 116.997,311.862 117.028 C 311.533 117.160,309.869 121.159,309.307 123.167 C 306.719 132.416,309.798 141.931,316.963 146.821 C 318.140 147.625,320.467 148.832,320.842 148.833 C 320.984 148.833,321.171 148.893,321.258 148.966 C 321.583 149.238,323.618 149.773,325.750 150.147 C 328.065 150.553,332.737 150.488,335.417 150.014 C 335.875 149.933,336.735 149.780,337.328 149.674 C 339.761 149.239,345.583 147.042,345.806 146.475 C 345.836 146.397,345.956 146.333,346.071 146.333 C 346.187 146.333,346.499 146.145,346.766 145.916 C 347.032 145.686,347.381 145.456,347.542 145.404 C 347.847 145.307,347.939 144.683,347.689 144.408 C 347.610 144.321,347.335 143.691,347.078 143.007 C 346.821 142.324,346.512 141.574,346.390 141.341 C 346.268 141.107,346.168 140.860,346.168 140.790 C 346.167 140.720,346.023 140.345,345.848 139.957 C 345.673 139.568,345.463 139.030,345.380 138.760 C 345.188 138.136,344.989 138.076,344.504 138.496 C 344.291 138.682,344.015 138.833,343.891 138.833 C 343.768 138.833,343.667 138.893,343.667 138.966 C 343.667 139.239,340.238 140.851,338.750 141.277 C 338.292 141.408,337.504 141.639,337.000 141.788 C 334.577 142.509,328.284 141.939,327.861 140.962 C 327.831 140.891,327.734 140.833,327.646 140.833 C 327.409 140.833,325.810 139.611,325.364 139.090 C 323.432 136.831,322.500 133.915,322.500 130.125 L 322.500 128.000 336.890 128.000 L 351.280 128.000 351.493 127.292 C 351.610 126.902,351.770 126.370,351.850 126.109 C 352.367 124.407,352.367 117.926,351.850 116.225 C 351.770 115.964,351.608 115.412,351.490 115.000 C 349.915 109.525,346.274 105.700,341.127 104.117 C 339.817 103.714,339.196 103.575,336.931 103.174 C 335.755 102.967,331.395 102.974,330.333 103.185 M388.167 103.773 C 384.076 104.567,379.517 107.665,376.552 111.667 C 376.042 112.354,375.669 112.767,375.721 112.583 C 375.801 112.306,376.572 109.473,377.354 106.583 C 377.454 106.217,377.602 105.744,377.684 105.534 C 377.766 105.323,377.833 104.967,377.833 104.742 L 377.833 104.333 370.428 104.333 L 363.024 104.333 362.773 105.208 C 362.634 105.690,362.216 107.208,361.843 108.583 C 361.470 109.958,361.100 111.308,361.021 111.583 C 360.732 112.594,360.478 113.518,359.167 118.333 C 357.851 123.163,357.598 124.084,357.312 125.083 C 357.233 125.358,356.754 127.121,356.247 129.000 C 355.346 132.345,355.101 133.241,354.812 134.250 C 354.733 134.525,354.253 136.287,353.746 138.167 C 353.239 140.046,352.679 142.071,352.501 142.667 C 352.324 143.262,352.105 144.050,352.015 144.417 C 351.926 144.783,351.780 145.346,351.692 145.667 C 351.133 147.696,350.833 148.927,350.833 149.195 C 350.833 149.491,351.127 149.502,358.190 149.460 C 366.339 149.412,365.645 149.520,365.974 148.250 C 366.069 147.883,366.265 147.171,366.409 146.667 C 366.764 145.424,366.907 144.898,367.500 142.667 C 367.780 141.612,368.092 140.450,368.194 140.083 C 368.295 139.717,368.440 139.192,368.515 138.917 C 368.590 138.642,368.769 138.004,368.911 137.500 C 369.242 136.331,369.305 136.103,370.429 132.000 C 371.432 128.338,372.151 126.036,372.602 125.038 C 372.757 124.696,373.102 123.929,373.370 123.333 C 374.058 121.802,374.238 121.428,374.333 121.333 C 374.379 121.287,374.596 120.912,374.816 120.500 C 375.219 119.743,376.326 117.987,376.498 117.833 C 376.549 117.787,376.731 117.530,376.903 117.261 C 378.278 115.104,380.982 112.948,382.337 112.928 C 383.423 112.912,383.869 113.396,385.442 116.296 C 385.655 116.688,385.906 117.101,386.000 117.213 C 386.094 117.325,386.399 117.717,386.678 118.083 C 389.496 121.787,395.731 120.470,398.095 115.672 C 399.273 113.281,399.297 109.906,398.152 107.638 C 397.335 106.020,396.084 104.985,393.750 103.995 C 393.247 103.782,388.993 103.613,388.167 103.773 M274.251 104.542 C 274.212 104.656,273.875 105.875,273.503 107.250 C 273.131 108.625,272.745 110.050,272.646 110.417 C 272.546 110.783,272.398 111.256,272.316 111.466 C 272.234 111.677,272.167 111.882,272.167 111.923 C 272.167 111.964,276.363 112.017,281.493 112.040 L 290.819 112.083 290.368 112.611 C 290.120 112.902,289.654 113.486,289.333 113.910 C 289.012 114.334,288.675 114.771,288.583 114.882 C 288.198 115.349,286.880 117.001,286.417 117.597 C 285.889 118.276,283.772 120.966,283.542 121.250 C 283.467 121.342,283.184 121.717,282.912 122.083 C 282.639 122.450,282.337 122.825,282.240 122.917 C 282.144 123.008,281.845 123.383,281.577 123.750 C 281.060 124.457,281.000 124.533,280.135 125.593 C 279.832 125.966,279.396 126.516,279.167 126.817 C 278.938 127.117,278.502 127.675,278.198 128.057 C 277.428 129.023,277.326 129.154,276.667 130.000 C 276.346 130.412,275.991 130.862,275.879 130.999 C 274.993 132.085,272.564 135.181,272.282 135.583 C 272.090 135.858,271.890 136.121,271.837 136.167 C 271.785 136.212,271.331 136.775,270.829 137.416 C 270.327 138.057,269.826 138.695,269.716 138.832 C 269.606 138.970,268.984 139.758,268.333 140.583 C 267.683 141.408,267.061 142.197,266.950 142.336 C 265.799 143.784,264.995 144.807,264.071 146.000 C 262.661 147.818,262.134 148.480,261.875 148.755 C 261.141 149.534,260.188 149.500,282.473 149.500 L 303.279 149.500 303.653 148.042 C 303.858 147.240,304.088 146.358,304.163 146.083 C 304.239 145.808,304.494 144.871,304.730 144.000 C 304.967 143.129,305.208 142.248,305.266 142.042 L 305.372 141.667 294.936 141.667 C 289.196 141.667,284.500 141.621,284.500 141.566 C 284.500 141.510,284.669 141.259,284.875 141.008 C 285.081 140.757,285.475 140.264,285.750 139.911 C 286.025 139.558,286.475 138.995,286.750 138.660 C 287.025 138.324,287.448 137.794,287.690 137.483 C 288.836 136.009,290.364 134.058,290.550 133.833 C 290.663 133.696,290.979 133.286,291.253 132.922 C 291.526 132.559,291.862 132.143,292.000 131.998 C 292.137 131.854,292.400 131.526,292.583 131.271 C 292.767 131.015,293.029 130.670,293.167 130.503 C 293.304 130.336,293.867 129.618,294.417 128.907 C 294.967 128.197,295.665 127.308,295.969 126.933 C 296.625 126.120,296.742 125.974,297.500 125.000 C 298.258 124.026,298.375 123.880,299.031 123.067 C 299.335 122.692,300.033 121.803,300.583 121.093 C 301.133 120.382,301.696 119.664,301.833 119.497 C 301.971 119.330,302.233 118.985,302.417 118.729 C 302.600 118.474,302.862 118.146,303.000 118.002 C 303.137 117.857,303.474 117.441,303.747 117.078 C 304.021 116.714,304.337 116.304,304.450 116.167 C 304.636 115.942,306.164 113.991,307.310 112.517 C 307.552 112.206,307.975 111.676,308.250 111.340 C 308.525 111.005,308.975 110.443,309.250 110.092 C 309.957 109.190,311.185 107.610,311.611 107.054 C 311.810 106.795,312.170 106.358,312.411 106.083 C 312.652 105.808,312.975 105.377,313.128 105.125 C 313.280 104.873,313.464 104.667,313.536 104.667 C 313.608 104.667,313.667 104.592,313.667 104.500 C 313.667 104.232,274.344 104.273,274.251 104.542 M334.708 110.741 C 338.254 111.588,340.043 114.906,339.585 119.787 L 339.472 121.000 331.556 121.000 L 323.640 121.000 323.757 120.467 C 323.954 119.572,325.626 115.867,325.999 115.500 C 326.045 115.454,326.344 115.042,326.663 114.583 C 328.787 111.529,331.862 110.061,334.708 110.741 " stroke="none" fill="#e8ebfc" fill-rule="evenodd"></path></g></svg>