<svg id="svg" version="1.1" xmlns="http://www.w3.org/2000/svg" xmlns:xlink="http://www.w3.org/1999/xlink" width="400" height="68" viewBox="0, 0, 400,68"><g id="svgg"><path id="path0" d="M377.667 0.993 C 354.609 2.608,341.484 19.952,346.020 42.813 C 349.865 62.195,370.351 71.444,396.375 65.548 L 398.333 65.105 398.333 59.136 L 398.333 53.167 397.969 53.167 C 397.769 53.167,397.075 53.313,396.427 53.493 C 388.688 55.637,378.880 55.861,373.853 54.007 C 363.618 50.233,358.552 39.298,361.597 27.552 C 365.101 14.033,378.619 9.059,396.398 14.746 C 397.121 14.977,397.778 15.167,397.857 15.167 C 397.935 15.167,398.000 12.551,398.000 9.354 L 398.000 3.540 397.542 3.360 C 393.351 1.709,383.755 0.566,377.667 0.993 M223.854 5.042 C 224.400 6.623,229.295 20.892,234.731 36.750 L 244.616 65.583 254.158 65.583 L 263.701 65.583 274.436 34.271 C 280.340 17.050,285.215 2.780,285.270 2.561 L 285.370 2.164 277.170 2.207 L 268.970 2.250 261.534 24.792 C 257.443 37.190,254.046 47.240,253.984 47.125 C 253.922 47.011,251.007 38.104,247.506 27.333 C 244.005 16.563,240.730 6.494,240.227 4.958 L 239.314 2.167 231.087 2.167 L 222.861 2.167 223.854 5.042 M301.358 2.625 C 301.003 3.516,279.833 65.377,279.833 65.522 C 279.833 65.606,283.356 65.651,288.020 65.627 L 296.208 65.583 303.562 42.973 C 307.607 30.537,310.962 20.449,311.017 20.556 C 311.072 20.663,314.445 30.856,318.512 43.208 L 325.907 65.667 334.138 65.667 C 340.653 65.667,342.353 65.623,342.291 65.458 C 342.249 65.344,337.349 51.056,331.402 33.708 L 320.591 2.167 311.066 2.167 L 301.540 2.167 301.358 2.625 " stroke="none" fill="#f2f4ff" fill-rule="evenodd"></path><path id="path1" d="M22.833 0.615 C 14.319 1.258,6.929 4.801,3.573 9.849 C -1.036 16.781,0.244 27.444,6.293 32.506 C 9.178 34.921,16.476 38.781,22.417 41.032 C 26.670 42.644,30.668 44.938,31.544 46.268 C 33.795 49.685,32.067 53.223,27.534 54.480 C 22.469 55.883,10.608 54.787,3.521 52.260 C 2.042 51.733,2.167 51.177,2.167 58.315 L 2.167 64.630 3.375 64.904 C 14.213 67.361,28.407 67.323,35.917 64.818 C 45.625 61.580,50.765 54.837,50.453 45.750 C 50.142 36.666,45.662 32.333,29.083 25.081 C 20.193 21.192,18.079 19.640,18.086 17.000 C 18.100 11.282,27.450 9.806,42.334 13.171 C 44.004 13.549,45.474 13.898,45.602 13.947 C 45.797 14.022,45.833 13.138,45.833 8.362 C 45.833 3.104,45.812 2.683,45.542 2.602 C 45.096 2.469,38.436 1.376,36.833 1.173 C 32.435 0.614,26.155 0.364,22.833 0.615 M183.172 0.840 C 164.795 2.612,155.130 14.642,155.547 35.225 C 155.926 53.932,165.404 65.058,182.486 66.847 C 207.488 69.464,222.381 52.579,218.409 26.117 C 215.746 8.372,202.631 -1.035,183.172 0.840 M60.500 33.917 L 60.500 65.667 68.750 65.667 L 77.000 65.667 77.000 33.917 L 77.000 2.167 68.750 2.167 L 60.500 2.167 60.500 33.917 M89.000 33.917 L 89.000 65.671 95.375 65.627 L 101.750 65.583 101.750 44.217 C 101.750 32.465,101.795 22.902,101.850 22.967 C 101.906 23.031,103.679 26.233,105.792 30.083 C 107.904 33.933,112.649 42.558,116.335 49.250 C 120.021 55.942,123.560 62.373,124.200 63.542 L 125.364 65.667 135.015 65.667 L 144.667 65.667 144.667 33.917 L 144.667 2.167 138.251 2.167 L 131.835 2.167 131.792 23.068 L 131.750 43.969 120.649 23.110 L 109.547 2.250 99.274 2.207 L 89.000 2.164 89.000 33.917 M189.083 12.503 C 198.179 13.515,203.244 21.206,203.243 34.000 C 203.241 47.703,197.377 55.525,187.117 55.512 C 177.989 55.500,172.152 48.814,171.173 37.250 C 169.831 21.393,177.221 11.183,189.083 12.503 " stroke="none" fill="#e8ebfc" fill-rule="evenodd"></path></g></svg>